<?xml version="1.0" standalone="no"?>
<!DOCTYPE svg PUBLIC "-//W3C//DTD SVG 20010904//EN"
 "http://www.w3.org/TR/2001/REC-SVG-20010904/DTD/svg10.dtd">
<svg version="1.0" xmlns="http://www.w3.org/2000/svg"
 width="1305.000000pt" height="1305.000000pt" viewBox="0 0 1305.000000 1305.000000"
 preserveAspectRatio="xMidYMid meet">
<metadata>
Created by potrace 1.11, written by Peter Selinger 2001-2013
</metadata>
<g transform="translate(0.000000,1305.000000) scale(0.100000,-0.100000)"
fill="#000000" stroke="none">
<path d="M6165 10875 c-1286 -121 -2411 -761 -3162 -1801 -571 -790 -861
-1769 -813 -2747 31 -627 179 -1199 452 -1742 193 -384 394 -676 694 -1007
l124 -137 -53 -44 c-28 -24 -67 -54 -84 -66 -37 -25 -38 -30 -20 -55 13 -17
32 -6 173 108 l23 19 53 -47 c163 -144 283 -246 373 -313 756 -568 1671 -873
2620 -873 495 0 962 79 1441 244 882 303 1666 913 2188 1701 241 363 391 674
524 1087 276 851 276 1805 0 2656 -133 413 -283 724 -524 1087 -522 788 -1306
1398 -2188 1701 -368 127 -724 201 -1121 234 -162 13 -529 11 -700 -5z m-537
-1819 c221 -59 433 -243 579 -504 27 -48 39 -62 52 -57 45 18 245 75 311 89
509 110 1021 53 1459 -165 160 -79 250 -136 386 -246 401 -323 664 -796 752
-1353 24 -155 24 -545 0 -703 -63 -411 -201 -772 -429 -1124 -33 -51 -66 -93
-73 -93 -32 0 -220 44 -368 85 -739 208 -1428 547 -2018 991 -507 382 -971
878 -1281 1371 l-73 115 -23 -29 c-81 -99 -237 -399 -308 -591 -44 -119 -32
-115 -167 -57 -288 125 -568 375 -710 635 -132 241 -154 501 -59 700 36 75
159 198 237 237 115 59 187 75 345 80 122 4 162 1 250 -17 111 -23 230 -60
294 -92 46 -24 51 -19 61 59 16 131 83 302 163 420 79 116 212 215 333 247 70
19 219 20 287 2z m-978 -2476 c710 -985 1831 -1744 3115 -2109 181 -51 351
-91 393 -91 12 0 22 -4 22 -9 0 -11 -164 -135 -270 -204 -120 -77 -292 -167
-322 -167 -13 0 -112 25 -220 55 -849 237 -1623 644 -2278 1196 -155 130 -468
440 -584 577 l-79 94 6 136 c8 157 27 292 62 441 38 155 56 214 65 204 4 -4
45 -60 90 -123z m335 -1896 c487 -366 1008 -644 1620 -864 l160 -58 -70 -7
c-111 -12 -386 1 -525 25 -418 73 -783 255 -1081 539 -175 166 -306 341 -415
555 l-56 109 123 -105 c68 -57 178 -145 244 -194z"/>
<path d="M8330 7668 c-48 -33 -72 -83 -67 -139 13 -147 189 -189 280 -68 27
37 27 121 0 158 -34 46 -81 71 -133 71 -32 0 -57 -7 -80 -22z"/>
<path d="M6602 7520 c-35 -21 -71 -87 -72 -129 0 -44 38 -106 79 -129 77 -44
173 -15 211 63 25 51 25 78 1 131 -36 79 -143 110 -219 64z"/>
<path d="M7772 7514 c-17 -12 -22 -25 -22 -58 0 -111 -126 -171 -243 -116 -39
18 -52 34 -101 113 -19 32 -55 36 -79 9 -22 -24 -21 -44 3 -93 53 -104 163
-164 285 -157 145 10 245 106 245 239 0 60 -45 93 -88 63z"/>
<path d="M1157 4009 c-55 -8 -298 -67 -305 -73 -2 -2 0 -15 3 -29 l7 -25 61
19 c97 29 252 58 343 66 80 6 84 7 84 29 0 23 -3 24 -67 23 -38 -1 -94 -5
-126 -10z"/>
<path d="M1547 3993 c-4 -3 -7 -14 -7 -22 0 -11 20 -22 68 -35 93 -26 206 -86
286 -152 62 -52 69 -55 84 -40 15 14 13 19 -18 52 -68 71 -184 139 -304 180
-72 25 -98 29 -109 17z"/>
<path d="M430 3779 c-124 -49 -228 -93 -233 -98 -4 -4 -1 -16 7 -26 13 -18 23
-15 232 69 121 48 224 91 231 95 9 4 9 11 0 28 -12 22 -13 22 -237 -68z"/>
<path d="M0 3582 c0 -24 4 -30 15 -26 12 5 12 10 3 27 -16 33 -18 33 -18 -1z"/>
<path d="M2112 3598 c-7 -7 -12 -16 -12 -21 0 -14 156 -202 229 -276 85 -86
106 -99 121 -71 9 17 1 29 -64 91 -42 39 -115 120 -163 180 -48 60 -90 109
-93 109 -3 0 -11 -5 -18 -12z"/>
<path d="M3020 3188 c-53 -17 -96 -21 -227 -22 -152 -1 -162 -2 -167 -21 -3
-10 -4 -21 -2 -23 2 -1 34 -8 70 -13 82 -13 246 2 356 33 41 11 77 22 78 23 2
2 1 13 -3 24 -8 25 -20 25 -105 -1z"/>
</g>
</svg>
