<?xml version="1.0" encoding="utf-8"?>
<!-- Generator: Adobe Illustrator 16.0.3, SVG Export Plug-In . SVG Version: 6.00 Build 0)  -->
<!DOCTYPE svg PUBLIC "-//W3C//DTD SVG 1.1//EN" "http://www.w3.org/Graphics/SVG/1.1/DTD/svg11.dtd">
<svg version="1.1" id="Layer_1" xmlns="http://www.w3.org/2000/svg" xmlns:xlink="http://www.w3.org/1999/xlink" x="0px" y="0px"
	 width="861.086px" height="220.334px" viewBox="0 0 861.086 220.334" enable-background="new 0 0 861.086 220.334"
	 xml:space="preserve">
<g>
	<g>
		<path fill="#FEBC2E" d="M36.57,190.459V106.19H20.965V81.462H36.57v-28.33c0-10.564,4.081-20.407,11.284-27.609
			c7.683-7.203,17.525-11.284,27.85-11.284h29.29l-7.683,28.33H76.184c-5.521,0-10.563,5.042-10.563,11.044v27.85h31.931v24.729
			H65.62v84.269H36.57z"/>
		<path fill="#FEBC2E" d="M113.636,190.459V80.501h30.25v8.883c8.644-8.643,21.607-11.524,30.25-11.524h7.203l-7.203,30.01h-4.562
			c-14.164,0-25.688,11.043-25.688,24.248v58.34H113.636z"/>
		<path fill="#FEBC2E" d="M231.035,193.1c-6.962,0-14.165-1.681-20.887-4.802c-6.242-2.641-12.005-6.962-17.286-12.484
			c-8.403-9.123-13.444-21.127-14.646-33.611c-0.239-2.161-0.479-4.322-0.479-6.722c0-4.802,0.72-9.844,1.92-14.885
			c2.161-9.604,6.723-18.486,13.205-25.208c4.802-5.282,10.323-9.363,17.286-12.725c6.481-3.121,13.685-4.562,21.127-4.562
			c7.683,0,14.645,1.44,21.127,4.562c7.202,3.361,12.965,7.683,17.286,12.725c6.242,6.722,11.044,15.365,13.444,25.208
			c1.2,4.562,1.681,9.363,1.681,14.885c0,1.92,0,3.841,0,5.521h-80.667l0.239,1.681c3.121,14.885,14.405,25.689,26.89,25.689h0.24
			c6.962-0.48,14.645-4.802,19.206-8.643l2.641-2.161l19.927,17.286l-3.601,3.121c-2.641,2.401-6.002,5.282-9.604,7.203h-0.24
			c-8.643,5.042-18.006,7.683-28.569,7.923H231.035z M207.507,119.635l-0.96,1.921h49.697l-0.961-1.921
			c-5.521-10.323-14.645-16.565-24.008-16.565S212.549,109.551,207.507,119.635z"/>
		<path fill="#FEBC2E" d="M343.151,193.1c-6.962,0-14.165-1.681-20.887-4.802c-6.242-2.641-12.005-6.962-17.286-12.484
			c-8.403-9.123-13.444-21.127-14.646-33.611c-0.239-2.161-0.479-4.322-0.479-6.722c0-4.802,0.72-9.844,1.92-14.885
			c2.161-9.604,6.723-18.486,13.205-25.208c4.802-5.282,10.323-9.363,17.286-12.725c6.481-3.121,13.685-4.562,21.127-4.562
			c7.683,0,14.645,1.44,21.127,4.562c7.202,3.361,12.965,7.683,17.286,12.725c6.242,6.722,11.044,15.365,13.444,25.208
			c1.2,4.562,1.681,9.363,1.681,14.885c0,1.92,0,3.841,0,5.521h-80.668l0.24,1.681c3.121,14.885,14.405,25.689,26.89,25.689h0.24
			c6.962-0.48,14.645-4.802,19.206-8.643l2.641-2.161l19.928,17.286l-3.602,3.121c-2.641,2.401-6.002,5.282-9.604,7.203h-0.24
			c-8.643,5.042-18.006,7.683-28.569,7.923H343.151z M319.623,119.635l-0.96,1.921h49.697l-0.961-1.921
			c-5.521-10.323-14.645-16.565-24.008-16.565S324.665,109.551,319.623,119.635z"/>
		<path fill="#FEBC2E" d="M440.382,183.017l-1.201-1.201v8.643h-29.05V14.239h29.05v75.866l1.201-0.96
			c7.923-7.203,17.046-10.804,27.129-10.804c15.365,0,29.771,5.762,40.574,16.565c10.804,11.044,16.806,25.449,16.806,40.574
			c0,15.125-6.002,29.53-16.806,40.574c-11.044,10.804-25.449,16.565-40.574,16.565C458.868,192.62,449.024,191.419,440.382,183.017
			z M467.511,164.53c15.365,0,28.33-13.205,28.33-29.05c0-15.605-12.965-29.05-28.33-29.05s-28.33,13.445-28.33,29.05
			C439.181,151.326,452.146,164.53,467.511,164.53z"/>
		<path fill="#FEBC2E" d="M584.19,193.1c-6.962,0-14.165-1.681-20.887-4.802c-6.242-2.641-12.005-6.962-17.286-12.484
			c-8.403-9.123-13.444-21.127-14.646-33.611c-0.239-2.161-0.479-4.322-0.479-6.722c0-4.802,0.72-9.844,1.92-14.885
			c2.161-9.604,6.723-18.486,13.205-25.208c4.802-5.282,10.323-9.363,17.286-12.725c6.481-3.121,13.685-4.562,21.127-4.562
			c7.683,0,14.645,1.44,21.127,4.562c7.202,3.361,12.965,7.683,17.286,12.725c6.242,6.722,11.044,15.365,13.444,25.208
			c1.2,4.562,1.681,9.363,1.681,14.885c0,1.92,0,3.841,0,5.521h-80.668l0.24,1.681c3.121,14.885,14.405,25.689,26.89,25.689h0.24
			c6.962-0.48,14.645-4.802,19.206-8.643l2.641-2.161l19.928,17.286l-3.602,3.121c-2.641,2.401-6.002,5.282-9.604,7.203H613
			c-8.643,5.042-18.006,7.683-28.569,7.923H584.19z M560.662,119.635l-0.96,1.921h49.697l-0.961-1.921
			c-5.521-10.323-14.645-16.565-24.008-16.565S565.704,109.551,560.662,119.635z"/>
		<path fill="#FEBC2E" d="M696.307,193.1c-6.962,0-14.165-1.681-20.887-4.802c-6.242-2.641-12.005-6.962-17.286-12.484
			c-8.403-9.123-13.444-21.127-14.646-33.611c-0.239-2.161-0.479-4.322-0.479-6.722c0-4.802,0.72-9.844,1.92-14.885
			c2.161-9.604,6.723-18.486,13.205-25.208c4.802-5.282,10.323-9.363,17.286-12.725c6.481-3.121,13.685-4.562,21.127-4.562
			c7.683,0,14.645,1.44,21.127,4.562c7.202,3.361,12.965,7.683,17.286,12.725c6.242,6.722,11.044,15.365,13.444,25.208
			c1.2,4.562,1.681,9.363,1.681,14.885c0,1.92,0,3.841,0,5.521h-80.667l0.239,1.681c3.121,14.885,14.405,25.689,26.89,25.689h0.24
			c6.962-0.48,14.645-4.802,19.206-8.643l2.641-2.161l19.927,17.286l-3.601,3.121c-2.641,2.401-6.002,5.282-9.604,7.203h-0.24
			c-8.643,5.042-18.006,7.683-28.569,7.923H696.307z M672.778,119.635l-0.96,1.921h49.697l-0.961-1.921
			c-5.521-10.323-14.645-16.565-24.008-16.565S677.82,109.551,672.778,119.635z"/>
		<path fill="#FEBC2E" d="M787.536,190.219c-12.004-2.401-23.287-7.683-32.171-15.605l-3.601-2.881l18.006-19.927l3.361,3.121
			c10.563,8.883,19.206,10.563,24.729,10.563c4.081,0,6.962-0.48,9.843-1.92c3.602-1.44,5.282-3.841,5.282-7.203
			c0-2.881-1.681-6.482-15.846-8.883c-12.964-2.641-21.127-5.282-24.969-7.442c-5.041-2.881-9.123-6.723-12.004-11.524
			c-2.881-4.802-4.321-10.083-4.321-16.085c0-6.242,1.921-12.244,5.762-17.766c3.121-4.562,7.683-8.163,14.405-11.524
			c5.521-2.641,11.764-3.841,19.206-3.841c2.642,0,5.282,0.24,7.683,0.48c10.564,1.681,21.128,6.242,29.771,12.964l3.602,2.881
			l-17.046,19.687l-3.361-2.641c-8.403-6.722-15.605-7.922-19.927-7.922c-3.121,0-6.002,0.48-8.643,1.68
			c-3.121,1.681-4.802,4.322-4.802,6.002c0,3.361,2.4,5.762,14.885,8.643c16.325,3.841,21.607,5.762,24.969,7.203
			c6.722,3.841,9.603,6.962,12.004,10.083c3.602,5.042,5.282,11.284,5.282,18.006c0,6.962-1.921,13.205-5.522,18.247
			c-3.602,5.042-8.402,9.363-15.365,12.724c-5.521,2.641-12.725,4.082-19.927,4.082
			C795.459,191.419,791.858,190.939,787.536,190.219z"/>
	</g>
</g>
</svg>
